<?xml version="1.0" encoding="utf-8"?>
<svg width="256" height="256" viewBox="0 0 256 256" version="1.1" xmlns="http://www.w3.org/2000/svg">
  <defs>
    <linearGradient id="photoGradientBluePurple" x1="0" y1="0" x2="0" y2="1">
      <stop offset="0" stop-color="#3465A4"/>
      <stop offset="1" stop-color="#61398F"/>
    </linearGradient>
    <linearGradient id="photoGradientOrangeYellow" x1="0" y1="0" x2="0" y2="1">
      <stop offset="0" stop-color="#F89728"/>
      <stop offset="1" stop-color="#FBCB43"/>
    </linearGradient>
    <linearGradient id="photoGradientGreenAqua" x1="0" y1="0" x2="0" y2="1">
      <stop offset="0" stop-color="#28A745"/>
      <stop offset="1" stop-color="#7FFFD4"/>
    </linearGradient>
    <linearGradient id="photoGradientBrownWhite" x1="0" y1="0" x2="0" y2="1">
      <stop offset="0" stop-color="#FFFFFF"/>
      <stop offset="1" stop-color="#8B4513"/>
    </linearGradient>
  </defs>
  <rect x="34.557" y="23.707" rx="8" ry="8" width="96" height="208" fill="#FDFDFD" stroke="#D1D5DA" stroke-width="2"/>
  <rect x="130.557" y="23.707" rx="8" ry="8" width="96" height="208" fill="#FDFDFD" stroke="#D1D5DA" stroke-width="2"/>
  <g transform="matrix(1, 0, 0, 1, 51.887745, 33.706757)">
    <rect width="60" height="70" fill="#FFFFFF" stroke="#C2C7CC" stroke-width="1" rx="4" ry="4"/>
    <rect x="1" y="1" width="58" height="50" fill="url(#photoGradientBluePurple)" rx="3" ry="3"/>
  </g>
  <g transform="matrix(1, 0, 0, 1, 51.887749, 113.706757)">
    <rect width="60" height="70" fill="#FFFFFF" stroke="#C2C7CC" stroke-width="1" rx="4" ry="4"/>
    <rect x="1" y="1" width="58" height="50" fill="url(#photoGradientOrangeYellow)" rx="3" ry="3"/>
  </g>
  <g transform="matrix(1, 0, 0, 1, 147.331039, 33.706757)">
    <rect width="60" height="70" fill="#FFFFFF" stroke="#C2C7CC" stroke-width="1" rx="4" ry="4"/>
    <rect x="1" y="1" width="58" height="50" fill="url(#photoGradientGreenAqua)" rx="3" ry="3"/>
  </g>
  <g transform="matrix(1, 0, 0, 1, 147.331039, 113.706757)">
    <rect width="60" height="70" fill="#FFFFFF" stroke="#C2C7CC" stroke-width="1" rx="4" ry="4"/>
    <rect x="1" y="1" width="58" height="50" fill="url(#photoGradientBrownWhite)" rx="3" ry="3"/>
  </g>
</svg>
