<svg width="971" height="973" xmlns="http://www.w3.org/2000/svg" xmlns:xlink="http://www.w3.org/1999/xlink" xml:space="preserve" overflow="hidden"><defs><filter id="fx0" x="-10%" y="-10%" width="120%" height="120%" filterUnits="userSpaceOnUse" primitiveUnits="userSpaceOnUse"><feComponentTransfer color-interpolation-filters="sRGB"><feFuncR type="discrete" tableValues="0 0"/><feFuncG type="discrete" tableValues="0 0"/><feFuncB type="discrete" tableValues="0 0"/><feFuncA type="linear" slope="0.4" intercept="0"/></feComponentTransfer><feGaussianBlur stdDeviation="6.11111 6.11111"/></filter><filter id="fx1" x="-10%" y="-10%" width="120%" height="120%" filterUnits="userSpaceOnUse" primitiveUnits="userSpaceOnUse"><feComponentTransfer color-interpolation-filters="sRGB"><feFuncR type="discrete" tableValues="0 0"/><feFuncG type="discrete" tableValues="0 0"/><feFuncB type="discrete" tableValues="0 0"/><feFuncA type="linear" slope="0.4" intercept="0"/></feComponentTransfer><feGaussianBlur stdDeviation="6.11111 6.11111"/></filter><filter id="fx2" x="-10%" y="-10%" width="120%" height="120%" filterUnits="userSpaceOnUse" primitiveUnits="userSpaceOnUse"><feComponentTransfer color-interpolation-filters="sRGB"><feFuncR type="discrete" tableValues="0 0"/><feFuncG type="discrete" tableValues="0 0"/><feFuncB type="discrete" tableValues="0 0"/><feFuncA type="linear" slope="0.4" intercept="0"/></feComponentTransfer><feGaussianBlur stdDeviation="6.11111 6.11111"/></filter><filter id="fx3" x="-10%" y="-10%" width="120%" height="120%" filterUnits="userSpaceOnUse" primitiveUnits="userSpaceOnUse"><feComponentTransfer color-interpolation-filters="sRGB"><feFuncR type="discrete" tableValues="0 0"/><feFuncG type="discrete" tableValues="0 0"/><feFuncB type="discrete" tableValues="0 0"/><feFuncA type="linear" slope="0.4" intercept="0"/></feComponentTransfer><feGaussianBlur stdDeviation="6.11111 6.11111"/></filter><clipPath id="clip4"><rect x="1122" y="549" width="971" height="973"/></clipPath></defs><g clip-path="url(#clip4)" transform="translate(-1122 -549)"><path d="M1122 701.671C1122 617.353 1190.35 549 1274.67 549L1940.33 549C2024.65 549 2093 617.353 2093 701.671L2093 1369.33C2093 1453.65 2024.65 1522 1940.33 1522L1274.67 1522C1190.35 1522 1122 1453.65 1122 1369.33Z" fill="#F2F2F2" fill-rule="evenodd"/><path d="M1164 708.794C1164 645.947 1214.95 595 1277.79 595L1936.21 595C1999.05 595 2050 645.947 2050 708.794L2050 1235.21C2050 1298.05 1999.05 1349 1936.21 1349L1277.79 1349C1214.95 1349 1164 1298.05 1164 1235.21Z" fill="#D9D9D9" fill-rule="evenodd"/><g filter="url(#fx0)" transform="translate(1336 719)"><g><path d="M20.2773 52.2229C20.2773 70.1721 78.4804 84.7229 150.277 84.7229 222.075 84.7229 280.278 70.1721 280.278 52.2229L280.277 397.223C280.277 415.172 222.074 429.723 150.277 429.723 78.4799 429.723 20.2769 415.172 20.2769 397.223Z" fill="#156082" fill-rule="evenodd"/><path d="M20.2773 52.2229C20.2773 34.2736 78.4804 19.7228 150.277 19.7228 222.075 19.7228 280.278 34.2736 280.278 52.2229 280.278 70.1721 222.075 84.7229 150.277 84.7229 78.4804 84.7229 20.2773 70.1721 20.2773 52.2229Z" fill="#73A0B4" fill-rule="evenodd"/></g></g><path d="M1366 761.5C1366 779.449 1424.2 794 1496 794 1567.8 794 1626 779.449 1626 761.5L1626 1106.5C1626 1124.45 1567.8 1139 1496 1139 1424.2 1139 1366 1124.45 1366 1106.5Z" fill="#156082" fill-rule="evenodd"/><path d="M1366 761.5C1366 743.551 1424.2 729 1496 729 1567.8 729 1626 743.551 1626 761.5 1626 779.449 1567.8 794 1496 794 1424.2 794 1366 779.449 1366 761.5Z" fill="#73A0B4" fill-rule="evenodd"/><g filter="url(#fx1)" transform="translate(1484 947)"><g><rect x="20.2771" y="84.7227" width="212" height="195" fill="#B4E5A2"/><path d="M232.277 84.7227 297.277 19.7227 297.277 214.723 232.277 279.723Z" fill="#91B882" fill-rule="evenodd"/><path d="M20.2771 84.7227 85.277 19.7227 297.277 19.7227 232.277 84.7227Z" fill="#C3EAB4" fill-rule="evenodd"/></g></g><rect x="1514" y="1022" width="212" height="195" fill="#B4E5A2"/><path d="M1726 1022 1791 957 1791 1152 1726 1217Z" fill="#91B882" fill-rule="evenodd"/><path d="M1514 1022 1579 957 1791 957 1726 1022Z" fill="#C3EAB4" fill-rule="evenodd"/><g filter="url(#fx2)" transform="translate(1227 955)"><g><path d="M255.583 315.362 225.384 198.069 333.021 253.604Z" fill="#F2AA84" fill-rule="evenodd"/><path d="M117.248 297.937 172.144 21.1043 332.226 253.534Z" fill="#F2AA84" fill-rule="evenodd"/><path d="M19.5455 288.536 170.41 19.5829 257.994 315.26Z" fill="#F6C6AD" fill-rule="evenodd"/></g></g><path d="M1492.31 1260.64 1462.11 1143.35 1569.74 1198.88Z" fill="#F2AA84" fill-rule="evenodd"/><path d="M1353.97 1243.21 1408.87 966.382 1568.95 1198.81Z" fill="#F2AA84" fill-rule="evenodd"/><path d="M1256.27 1233.81 1407.13 964.86 1494.72 1260.54Z" fill="#F6C6AD" fill-rule="evenodd"/><g filter="url(#fx3)" transform="translate(1660 660)"><g><path d="M297.277 149.723 241.387 168.379 241.387 131.067ZM256.702 57.7957 231.243 108.088 203.134 81.7044ZM158.777 19.7227 178.653 72.183 138.901 72.183ZM60.8396 57.7957 114.42 81.7044 86.3115 108.088ZM20.2771 149.723 76.1676 131.067 76.1676 168.379ZM60.8396 241.637 86.3115 191.358 114.42 217.741ZM158.777 279.723 138.901 227.262 178.653 227.262ZM256.702 241.637 203.134 217.741 231.243 191.358ZM89.5271 149.723C89.5271 113.824 120.531 84.7226 158.777 84.7226 197.023 84.7226 228.027 113.824 228.027 149.723 228.027 185.621 197.023 214.723 158.777 214.723 120.531 214.723 89.5271 185.621 89.5271 149.723Z" fill="#FAF779" fill-rule="evenodd"/></g></g><path d="M1967 800 1911.11 818.656 1911.11 781.344ZM1926.42 708.073 1900.97 758.365 1872.86 731.982ZM1828.5 670 1848.38 722.46 1808.62 722.46ZM1730.56 708.073 1784.14 731.982 1756.03 758.365ZM1690 800 1745.89 781.344 1745.89 818.656ZM1730.56 891.915 1756.03 841.635 1784.14 868.018ZM1828.5 930 1808.62 877.539 1848.38 877.539ZM1926.42 891.915 1872.86 868.018 1900.97 841.635ZM1759.25 800C1759.25 764.101 1790.25 735 1828.5 735 1866.75 735 1897.75 764.101 1897.75 800 1897.75 835.898 1866.75 865 1828.5 865 1790.25 865 1759.25 835.898 1759.25 800Z" fill="#FAF779" fill-rule="evenodd"/></g></svg>